<svg width="29" height="27" viewBox="0 0 29 27" fill="none" xmlns="http://www.w3.org/2000/svg">
<path d="M23.3633 23.707C23.8906 23.707 24.3242 23.2852 24.3242 22.7695C24.3242 22.2422 23.8906 21.8086 23.3633 21.8086H21.9336V14.0391C21.9336 9.76172 18.6406 6.45703 14.3633 6.45703C10.0977 6.45703 6.80469 9.76172 6.80469 14.0391V21.8086H5.35156C4.83594 21.8086 4.42578 22.2422 4.42578 22.7695C4.42578 23.2852 4.83594 23.707 5.35156 23.707H23.3633ZM15.3477 14.0742V21.8086H13.4023V14.0742C13.4023 13.5352 13.8242 13.0898 14.3633 13.0898C14.9023 13.0898 15.3477 13.5352 15.3477 14.0742ZM3.74609 14.8828C4.29688 14.8828 4.77734 14.4258 4.77734 13.8867C4.77734 13.3242 4.29688 12.8672 3.74609 12.8672H1.49609C0.957031 12.8672 0.5 13.3359 0.5 13.8867C0.5 14.4141 0.957031 14.8828 1.49609 14.8828H3.74609ZM6.14844 7.08984C6.53516 7.47656 7.17969 7.48828 7.56641 7.08984C7.96484 6.69141 7.95312 6.05859 7.56641 5.67188L5.98438 4.07812C5.60938 3.67969 4.95312 3.67969 4.55469 4.07812C4.16797 4.47656 4.16797 5.09766 4.55469 5.49609L6.14844 7.08984ZM13.3555 3.26953C13.3555 3.82031 13.8125 4.28906 14.3633 4.28906C14.9258 4.28906 15.3828 3.82031 15.3828 3.26953V1.01953C15.3828 0.46875 14.9141 0 14.3633 0C13.8125 0 13.3555 0.46875 13.3555 1.01953V3.26953ZM21.1484 5.67188C20.7617 6.05859 20.75 6.69141 21.1484 7.08984C21.5586 7.48828 22.1797 7.47656 22.5664 7.08984L24.1719 5.49609C24.5586 5.09766 24.5586 4.47656 24.1719 4.07812C23.7617 3.67969 23.1406 3.67969 22.7539 4.07812L21.1484 5.67188ZM27.2188 14.8828C27.7695 14.8828 28.2383 14.4141 28.2383 13.8867C28.2383 13.3359 27.7695 12.8672 27.2188 12.8672H24.9688C24.4297 12.8672 23.9609 13.3242 23.9609 13.8867C23.9609 14.4258 24.4297 14.8828 24.9688 14.8828H27.2188Z" fill="#FF9500"/>
</svg>
